<svg xmlns="http://www.w3.org/2000/svg" width="48" height="48" viewBox="0 0 4.915 4.915"><g fill="none" fill-rule="evenodd"><path d="M.742 3.732v-.313c0-.04.026-.074.069-.074h.012c.043 0 .068.033.068.074v.658c0 .16-.08.288-.218.37a.41.408 0 01-.21.056h-.03a.418.418 0 01-.372-.217.41.407 0 01-.058-.209v-.03c0-.16.08-.287.22-.369a.41.407 0 01.21-.057h.03c.108 0 .201.042.28.11zm-.59.33a.28.28 0 00.16.259.287.287 0 00.391-.116.282.282 0 00-.09-.383.28.28 0 00-.166-.053.283.283 0 00-.268.174.27.27 0 00-.027.12zm1.256-.44h.02c.173 0 .305.082.388.232.033.06.05.125.05.194v.03c0 .16-.079.287-.218.368a.414.414 0 01-.21.057h-.03a.418.418 0 01-.372-.217.41.407 0 01-.057-.209v-.03c0-.16.08-.287.219-.369a.41.41 0 01.21-.057zm-.28.44c0 .113.055.196.151.254a.285.285 0 00.399-.11.281.281 0 00-.098-.388.278.278 0 00-.157-.049.283.283 0 00-.269.174.27.27 0 00-.026.12zm1.358-.28a.28.28 0 00-.089-.016c-.124-.004-.214.065-.267.174a.269.269 0 00-.027.12c0 .126.067.215.181.269.042.02.096.023.141.023a.37.37 0 00.132-.04l.006-.004h.028l.003.001c.034.007.06.028.06.065v.014c0 .09-.167.111-.23.115a.42.42 0 01-.454-.317.38.38 0 01-.016-.112v-.03c0-.16.08-.287.22-.369a.41.41 0 01.21-.057h.03c.079 0 .152.023.217.067l.006.004.003.006a.078.078 0 01.013.039v.014c0 .038-.028.058-.063.065h-.012a.337.337 0 01-.092-.032zm.483.1c.058-.058.116-.116.175-.172.016-.016.078-.083.103-.083H3.276c.034.008.06.03.06.065v.015c0 .025-.03.054-.045.07-.035.037-.07.071-.106.107l-.18.181.232.232a6.023 5.982 0 01.064.065c.007.008.018.017.024.028a.06.06 0 01.01.034v.018c-.008.034-.03.061-.068.061h-.011c-.025 0-.053-.027-.07-.043l-.102-.1-.115-.112v.178c0 .042-.026.075-.068.075h-.012c-.043 0-.069-.033-.069-.075V3.422c0-.04.026-.074.069-.074h.012c.042 0 .068.033.068.074zm1.857-.255h.015c.044 0 .074.03.074.074 0 .061-.059.077-.11.077-.067 0-.13.04-.177.085a.28.28 0 00-.082.208v.358c0 .041-.026.074-.069.074h-.012c-.043 0-.068-.033-.068-.074v-.378c0-.146.071-.265.19-.348a.412.412 0 01.239-.076zm-1.059.71a.35.35 0 00.172.007c.028-.012.101-.044.128-.04l.004.001.004.002a.084.084 0 01.04.036c.02.038.01.077-.028.1l-.013.007a.427.427 0 01-.432-.006.4.4 0 01-.157-.156l-.01-.015a.416.416 0 01.025-.468.407.407 0 01.135-.122l.02-.012a.422.422 0 01.413-.004c.073.036.133.09.174.16l.007.013c.03.051-.008.096-.048.126-.046.036-.093.079-.138.117l-.296.254zm-.128-.09l.332-.282c.037-.032.079-.066.116-.1a.295.295 0 00-.123-.08.283.283 0 00-.25.023c-.102.06-.146.153-.142.27a.258.258 0 00.067.17zm-.804-2.964h.44v.446h.222a.97.97 0 00.454-.117.545.545 0 01-.103-.283c-.013-.136.015-.313.108-.42l.046-.053.055.044c.139.11.255.265.276.442a.676.676 0 01.51.047l.06.034-.032.062c-.124.241-.384.316-.638.303-.381.941-1.21 1.387-2.214 1.387-.52 0-.995-.193-1.267-.65l-.004-.008-.04-.08a1.259 1.259 0 01-.101-.642l.006-.066H.99v-.446h.44V.846h.879V.41h.527v.873" fill="#364548"/><path d="M4.26 1.448c.029-.228-.142-.406-.249-.491-.122.14-.141.51.05.665-.106.094-.332.18-.564.18H.68c-.023.24.02.46.117.65l.032.058a1.087 1.08 0 00.066.1c.116.007.223.01.32.007a1.58 1.58 0 00.468-.068.034.034 0 01.022.064 1.479 1.479 0 01-.38.069H1.31a3.647 3.647 0 01-.352-.001l-.001.002c.235.262.602.42 1.062.42.973 0 1.8-.43 2.165-1.392.26.026.509-.04.622-.26-.18-.103-.413-.07-.547-.003" fill="#22a0c8"/><path d="M4.26 1.448c.029-.228-.142-.406-.249-.491-.122.14-.141.51.05.665-.106.094-.332.18-.564.18H.847c-.012.367.126.646.368.815a1.58 1.58 0 00.468-.068.034.034 0 01.022.064 1.555 1.555 0 01-.381.07l-.003-.003c.331.169.812.168 1.363-.042A3.827 3.827 0 004.277 1.44a.486.486 0 00-.018.008" fill="#37b1d9"/><path d="M.685 2.093c.018.129.056.25.112.359l.032.058a1.085 1.078 0 00.066.1c.116.007.223.01.32.007a1.58 1.58 0 00.468-.068.034.034 0 01.022.064 1.555 1.555 0 01-.38.069h-.017a2.921 2.921 0 01-.353 0c.234.262.604.42 1.064.42.833 0 1.559-.314 1.98-1.009H.684" fill="#1b81a5"/><path d="M.872 2.093a.84.84 0 00.344.524 1.58 1.58 0 00.467-.068.034.034 0 01.022.064 1.579 1.579 0 01-.383.069c.332.169.81.166 1.362-.044.333-.127.654-.317.941-.545H.872" fill="#1d91b4"/><path d="M1.062 1.356h.381v.378h-.38zm.032.031h.03v.315h-.03zm.057 0h.03v.315h-.03v-.315zm.057 0h.032v.315h-.032zm.058 0h.031v.315h-.031zm.058 0h.031v.315h-.031zm.057 0h.03v.315h-.03zm.12-.468h.382v.378h-.381V.92zm.033.032h.03v.315h-.03zm.056 0h.031v.315h-.03V.95zm.058 0h.031v.315h-.031zm.058 0h.03v.315h-.03zm.057 0h.032v.315h-.032zm.058 0h.03v.315h-.03z" fill="#23a3c2"/><path d="M1.502 1.356h.38v.378h-.38v-.378zm.032.031h.03v.315h-.03zm.056 0h.031v.315h-.03v-.315zm.058 0h.031v.315h-.031zm.058 0h.03v.315h-.03zm.057 0h.032v.315h-.032zm.058 0h.03v.315h-.03z" fill="#34bbde"/><path d="M1.941 1.356h.381v.378h-.38zm.032.031h.03v.315h-.03zm.057 0h.031v.315H2.03zm.057 0h.032v.315h-.032zm.058 0h.031v.315h-.03zm.058 0h.031v.315h-.031zm.058 0h.03v.315h-.03z" fill="#23a3c2"/><path d="M1.941.919h.381v.378h-.38zm.032.032h.03v.315h-.03zm.057 0h.031v.315H2.03zm.057 0h.032v.315h-.032zm.058 0h.031v.315h-.03zm.058 0h.031v.315h-.031zm.058 0h.03v.315h-.03zm.12.405h.381v.378h-.38zm.032.031h.03v.315h-.03zm.056 0h.032v.315h-.032zm.058 0h.031v.315h-.03zm.058 0h.031v.315h-.031zm.058 0h.03v.315h-.03zm.057 0h.03v.315H2.7z" fill="#34bbde"/><path d="M2.381.919h.381v.378h-.38zm.032.032h.03v.315h-.03zm.056 0h.032v.315h-.032zm.058 0h.031v.315h-.03zm.058 0h.031v.315h-.031zm.058 0h.03v.315h-.03zm.057 0h.03v.315H2.7z" fill="#23a3c2"/><path d="M2.381.482h.381v.379h-.38zm.032.032h.03v.315h-.03V.514zm.056 0h.032v.315h-.032V.514zm.058 0h.031v.315h-.03V.514zm.058 0h.031v.315h-.031V.514zm.058 0h.03v.315h-.03V.514zm.057 0h.03v.315H2.7V.514z" fill="#34bbde"/><path d="M2.82 1.356h.382v.378H2.82zm.032.031h.03v.315h-.03v-.315zm.057 0h.031v.315H2.91v-.315zm.058 0h.03v.315h-.03zm.057 0h.032v.315h-.032zm.058 0h.031v.315h-.03zm.058 0h.03v.315h-.03z" fill="#23a3c2"/><path d="M1.859 2.348a.105.104 0 110 .208.105.104 0 010-.208" fill="#d3ecec"/><path d="M1.859 2.377c.01 0 .019.002.027.005a.03.03 0 00.016.057.03.03 0 00.027-.016.075.075 0 11-.07-.046M0 2.131h4.89c-.107-.027-.338-.063-.3-.201-.193.222-.66.156-.778.046-.131.189-.895.117-.948-.03-.165.192-.674.192-.839 0-.053.147-.817.219-.948.03-.118.11-.585.176-.778-.046.038.138-.193.174-.299.201" fill="#364548"/><path d="M2.138 3.1a.923.923 0 01-.482-.472 1.623 1.623 0 01-.348.053 2.897 2.897 0 01-.365-.002c.238.237.532.42 1.076.423.04 0 .08 0 .12-.002" fill="#bdd9d7"/><path d="M1.752 2.796a.905.905 0 01-.096-.168 1.621 1.621 0 01-.348.053c.093.05.225.096.444.115" fill="#d3ecec"/></g></svg>