<svg xmlns="http://www.w3.org/2000/svg" width="48" height="48"><path fill="#00796b" d="M1.002 35.074h1.84v-7.106l2.556 6.075c.315.757.746 1.025 1.593 1.025.846 0 1.26-.268 1.575-1.025l2.556-5.92v6.951h1.84v-7.28c0-.7-.266-1.038-.814-1.213-1.31-.431-2.19-.059-2.587.875L6.94 33.635 4.4 27.456c-.381-.933-1.276-1.306-2.587-.875-.549.175-.814.513-.814 1.212v7.28h.002zM13.881 29.297h1.84v4.067c-.014.2.061.733.949.747.452.008 2.703 0 2.731 0v-4.814h1.84c.008 0 0 5.986 0 6.01.01 1.477-1.752 1.668-2.562 1.693h-4.797v-.963h4.6c1.044-.115.92-.716.92-.899v-.064h-2.887c-1.6-.015-2.62-.753-2.632-1.595-.002-.078.034-4.146-.002-4.182z"/><path fill="#f57f17" d="M22.161 35.074h4.607a3.83 3.83 0 001.656-.361c.776-.373 1.096-.878 1.096-1.54V31.8c0-1.48-1.754-1.54-2.76-1.54h-1.84c-.724 0-.834-.458-.92-.963v-.963c.086-.386.247-.903.885-.963h4.634v-.963h-4.376c-.723 0-2.984.09-2.984 1.926v1.19c0 .843.707 1.529 2.243 1.697.172.012.345.024.516.024 0 0 1.788-.036 1.84-.024 1.035 0 .92.843.92.963v.963c0 .133-.029.963-.93.963h-4.59v.964zM39.64 33.107c0 1.163.628 1.815 2.292 1.945.156.011.312.021.468.021H47v-.963h-4.25c-.95 0-1.27-.417-1.27-1.014v-6.69h-1.84zM30.425 33.148v-4.814c0-1.023.479-1.73 1.836-1.926h4.45c1.357.196 1.994.902 1.994 1.926v4.796c0 .83-.206 1.275-.878 1.564l1.426 1.342h-2.07l-1.026-.963h-1.204l-2.047.012c-.296 0-.609-.043-.952-.141-1.03-.294-1.53-.86-1.53-1.796zm1.84 0c.094.469.453.963 1.092.963h1.786l-1.023-.963h2.084l.498.484s.178-.153.178-.484c0-.33-.015-4.814-.015-4.814-.094-.436-.516-.963-1.139-.963h-2.368a1.05 1.05 0 00-1.092 1.06z"/><path fill="#00796b" d="M45.274 25.393c-.988-.028-1.742.068-2.387.352-.183.081-.476.083-.506.324.1.11.116.276.196.411.154.26.414.61.646.793.254.201.516.416.787.59.483.307 1.023.484 1.488.793.274.181.547.412.815.616.132.103.22.26.393.324v-.029c-.09-.12-.114-.285-.197-.412l-.365-.382a6.115 6.115 0 00-1.292-1.293c-.384-.289-1.244-.679-1.405-1.146l-.028-.03c.272-.033.591-.136.842-.206.423-.119.8-.087 1.235-.206l.59-.176v-.118c-.22-.236-.379-.55-.618-.764-.63-.56-1.316-1.12-2.022-1.588-.392-.259-.877-.427-1.292-.647-.14-.074-.386-.112-.478-.235-.218-.29-.336-.66-.505-.999-.352-.71-.7-1.486-1.01-2.233-.214-.51-.353-1.013-.619-1.47-1.275-2.195-2.649-3.52-4.774-4.822-.453-.277-.998-.387-1.574-.53l-.927-.06c-.19-.083-.385-.323-.563-.44-.704-.467-2.512-1.48-3.033-.148-.33.84.492 1.661.787 2.087.206.3.47.634.618.971.097.22.114.443.196.676.204.576.527 1.232.792 1.765.133.27.28.552.45.793.103.148.28.213.309.441-.174.254-.183.648-.28.971-.44 1.45-.274 3.25.364 4.322.196.329.658 1.035 1.292.764.555-.237.431-.97.59-1.617.035-.147.013-.254.084-.352v.03c.168.352.336.706.506 1.058.374.631 1.039 1.29 1.6 1.735.291.231.521.63.9.765v-.03h-.03c-.073-.12-.188-.169-.28-.265a6.6 6.6 0 01-.646-.764 18.069 18.069 0 01-1.377-2.353c-.196-.396-.368-.831-.533-1.234-.065-.156-.064-.39-.197-.47-.182.294-.448.533-.59.88-.223.558-.253 1.238-.336 1.94-.05.019-.027.007-.056.03-.391-.1-.53-.52-.675-.882-.368-.915-.436-2.387-.112-3.44.083-.272.462-1.13.31-1.381-.073-.252-.315-.398-.449-.59a4.654 4.654 0 01-.45-.823c-.3-.713-.586-1.542-.903-2.264-.151-.345-.407-.693-.618-.999-.233-.339-.495-.588-.675-.999-.064-.145-.151-.379-.056-.53.03-.1.072-.143.168-.176.163-.132.617.043.787.117.45.196.826.383 1.208.647.183.128.368.374.589.442h.253c.396.095.839.03 1.207.147.654.208 1.239.53 1.77.882 1.62 1.07 2.943 2.593 3.848 4.41.146.293.21.572.337.882.258.626.585 1.27.842 1.882.257.61.508 1.226.871 1.735.192.267.93.41 1.264.559.235.104.62.211.843.352.425.269.837.589 1.235.881.203.148.815.47.846.736z"/><path fill="#00796b" d="M32.719 14.193a1.886 1.886 0 00-.506.059v.03h.029c.098.21.27.348.393.53l.28.616.028-.029c.174-.128.254-.333.253-.647-.07-.077-.08-.173-.14-.264-.081-.124-.236-.193-.337-.295z"/></svg>