<svg xmlns="http://www.w3.org/2000/svg" width="48" height="48"><g fill="#009688"><path d="M35.7 34.85c-7.7 0-13.2-8.9-13.4-9.3l-.6-1 .6-1c.2-.5 5.7-9.4 13.4-9.4 5.7 0 10.3 4.6 10.3 10.3 0 5.7-4.6 10.4-10.3 10.4zm-9.3-10.4c1.5 2 5.1 6.3 9.2 6.3 3.5 0 6.3-2.8 6.3-6.3s-2.8-6.3-6.3-6.3c-4.1 0-7.7 4.3-9.2 6.3z"/><path d="M12.3 34.85c-5.7 0-10.3-4.7-10.3-10.4s4.6-10.3 10.3-10.3c7.9 0 13.2 8.9 13.4 9.3l.6 1-.6 1c-.2.4-5.7 9.4-13.4 9.4zm0-16.7c-3.5 0-6.3 2.8-6.3 6.3s2.8 6.3 6.3 6.3c4.2 0 7.8-4.3 9.3-6.3-1.4-2-5-6.3-9.3-6.3z"/><path d="M10 23.15h6v2h-6zm22 0h6v2h-6z"/><path d="M34 21.15h2v6h-2z"/></g></svg>