<svg xmlns="http://www.w3.org/2000/svg" width="48" height="48"><path fill="#29b6f6" d="M44 11.077v25.846c0 1.273-.79 2.406-1.98 2.827l-8.824 4.15.8-10.877V14.977l-.8-10.877 8.823 4.15A2.988 2.988 0 0144 11.077z"/><path fill="#0277bd" d="M8.988 33.921l25.008-18.944V5.306c0-1.201-1.482-1.763-2.275-.862L4.644 29.252c-.9.832-.85 2.273.107 3.04 0 0 1.324 1.235 1.804 1.578.736.526 1.703.586 2.433.051z"/><path fill="#0288d1" d="M8.988 14.079l25.008 18.944v9.671c0 1.201-1.482 1.763-2.275.862L4.644 18.748c-.9-.832-.85-2.273.107-3.04 0 0 1.324-1.235 1.804-1.578.736-.526 1.703-.586 2.433-.051z"/></svg>