<svg xmlns="http://www.w3.org/2000/svg" width="48" height="48"><g transform="translate(-.5 .5)"><path fill="#00838f" d="M22.55 18.294c1.264 1.867 4.069 1.642 5.031-.398C28.678 15.573 30.052 13.28 34 14c2.201.402 3 3 3 3l11 2.003s-9.312-.307-11.382.727c0 0-.285 2.32-3.858 5.571-1.082.985.384 7.416-5.363 9.593-6.879 3.164-6.994 1.64-16.256 7.106 0 0 1.689-1.648-1.454-1.419 0 0 3.436-1.947-.851-1.249 0 0 2.632-1.615-.511-2.429 0 0 7.143-1.867 8.948-3.444.462-.404.837-1.716 1.155-2.823l-3.539 3.58v-1.035c0-1.035-1.801 1.657-1.801 1.657l-.268-1.657-3.105 2.699s-.271-1.388.379-2.574L6.61 35.251s.497-2.459 1.591-3.123l-2.63 1.224s.195-1.68 1.04-2.24l-2.299.779s.007-1.287 1.041-2.322l-1.807.634s.359-1.783 1.137-2.035l-1.707.316s.3-1.696 1.551-2.321l-2.289.45s.35-1.851 2.088-2.526l-2.626.077s1.351-1.963 2.739-2.163l-3.051.138s1.163-1.613 2.076-1.851L1 20.187s.725-1.301 1.851-1.663L1 18.436s.588-1.238 1.688-1.563L1 16.523s1.501-1.426 2.489-1.413l-2.351-.45s1.025-1.563 3.151-1.463l-2.226-1.038s1.413-1.088 3.639-.65L3.213 10.02s1.576-1.075 3.727-.263l-2.514-1.95s1.163-.625 2.288-.163L6 5c8.889 3.232 13.79 9.217 16.55 13.294z"/><circle cx="32.779" cy="17" r="1.061" fill="#00c853"/><circle cx="32.779" cy="17" r="1.061" fill="none" stroke="#fff" stroke-linecap="round" stroke-linejoin="round" stroke-miterlimit="10" stroke-width=".25"/><path fill="none" stroke="#fff" stroke-linecap="round" stroke-linejoin="round" stroke-miterlimit="10" stroke-width=".25" d="M37 17s-1.997.64-3.16.414M6.715 7.644s6.755 3.804 8.183 5.417M6.94 9.757s7.037 3.408 8.401 5.335M5.702 11.508s5.64 1.302 9.195 5.274M4.289 13.196s6.045.91 10.101 5.344M3.489 15.11s5.964.757 10.273 4.688M2.688 16.873s4.343-.912 10.664 4.466M2.851 18.524s4.715-.644 9.527 3.696M3.464 20.287s3.609-.803 7.677 2.53M4.439 22s2.75-.458 5.328 1.61M4.326 24.089s1.188-1.177 4.298.17M4.527 26.164s1.045-1.266 3.944-.65M4.683 28.169s1.664-2.175 5.751-1.559M5.353 29.569s1.951-2.114 5.787-1.863M6.611 31.112s1.677-2.63 5.603-2.699M8.202 32.128s.721-2.346 4.547-2.757M10.095 33.307s1.962-2.661 3.95-3.028M12.82 33.182s.966-2.143 2.479-2.069M31.871 17.692s-.767.278-1.584.148c0 0 .119.781-.884 1.319 0 0 1.133 1.337-.576 1.82 0 0-.13.724-.891.984 0 0-.019 1.207 1.337.947 0 0-.111 1.456 1.467 1.09 0 0 .546 1.626 1.898 1.456M36.618 19.73s-1.656-1.038-1.338-2.342"/></g></svg>