<svg xmlns="http://www.w3.org/2000/svg" width="48" height="48"><path fill="#0277bd" d="M24.484 5c-1.555.005-2.633.142-3.936.367C16.7 6.037 16 7.444 16 10.037V14h9v2H11.307c-2.636 0-4.943 1.242-5.674 4.219-.826 3.417-.863 5.557 0 9.125C6.288 32.005 7.731 34 10.368 34H14v-5.104C14 25.93 16.686 23 19.764 23H27c2.523 0 5-1.862 5-4.377v-8.586c0-2.439-1.76-4.263-4.218-4.672.06-.006-1.756-.371-3.298-.365zM19.5 9c.821 0 1.5.677 1.5 1.502A1.5 1.5 0 0119.5 12a1.49 1.49 0 01-1.5-1.498A1.5 1.5 0 0119.5 9z"/><path fill="#ffc107" d="M23.515 43c1.555-.005 2.633-.142 3.936-.367 3.848-.67 4.549-2.077 4.549-4.67V34h-9v-2h13.693c2.636 0 4.943-1.242 5.674-4.219.826-3.417.863-5.557 0-9.125C41.71 15.995 40.267 14 37.63 14h-3.632v5.104c0 2.966-2.686 5.896-5.764 5.896h-7.236c-2.523 0-5 1.862-5 4.377v8.586c0 2.439 1.76 4.263 4.218 4.672-.06.006 1.756.371 3.298.365zm4.985-4c-.821 0-1.5-.677-1.5-1.502A1.5 1.5 0 0128.5 36c.837 0 1.5.664 1.5 1.498A1.5 1.5 0 0128.5 39z"/></svg>