<svg xmlns="http://www.w3.org/2000/svg" width="48" height="48"><path fill="#37474f" d="M16.433 3c-.213.007-.443.086-.704.29-.637-.245-1.255-.33-1.808.168-.855-.109-1.132.118-1.341.383-.188-.002-1.402-.19-1.96.638-1.4-.166-1.842.821-1.34 1.74-.286.44-.582.877.086 1.719-.237.47-.09.976.467 1.592-.147.659.142 1.123.66 1.486-.097.9.83 1.424 1.106 1.61.107.526.328 1.02 1.385 1.295.175.784.81.917 1.426 1.083-2.035 1.178-3.78 2.729-3.768 6.535l-.298.529c-2.334 1.414-4.433 5.96-1.15 9.655.215 1.156.574 1.986.894 2.905.48 3.705 3.605 5.44 4.43 5.646 1.208.916 2.494 1.787 4.235 2.396 1.642 1.689 3.42 2.332 5.208 2.33h.079c1.787.002 3.566-.642 5.206-2.33 1.741-.608 3.028-1.479 4.237-2.396.824-.206 3.95-1.94 4.428-5.646.32-.919.68-1.749.895-2.905 3.282-3.695 1.184-8.241-1.15-9.655l-.298-.53c.012-3.805-1.735-5.356-3.768-6.534.615-.166 1.25-.3 1.425-1.084 1.059-.272 1.28-.77 1.386-1.295.277-.186 1.202-.71 1.107-1.611.518-.361.807-.826.659-1.484.559-.615.704-1.124.467-1.592.67-.842.373-1.277.088-1.72.5-.918.059-1.905-1.342-1.739-.557-.829-1.772-.64-1.96-.638-.209-.265-.487-.492-1.34-.383-.554-.498-1.172-.413-1.809-.168-.758-.596-1.26-.119-1.832.062-.915-.298-1.126.111-1.575.277-1-.21-1.303.247-1.783.731l-.558-.01c-1.508.885-2.256 2.69-2.522 3.616-.265-.928-1.013-2.732-2.52-3.617l-.559.011c-.48-.484-.783-.942-1.783-.73-.45-.167-.66-.576-1.577-.278-.377-.119-.723-.364-1.13-.352z"/><path fill="#64dd17" d="M13.43 6.899c4 2.055 6.327 3.718 7.6 5.134-.651 2.607-4.055 2.726-5.3 2.653.255-.12.469-.26.543-.48-.312-.22-1.42-.022-2.193-.455.297-.062.436-.12.575-.34-.73-.231-1.516-.432-1.98-.816.25.003.483.055.809-.17-.654-.351-1.353-.63-1.895-1.166.339-.01.704-.004.81-.13a7.348 7.348 0 01-1.524-1.23c.474.059.673.01.789-.074-.454-.461-1.027-.85-1.299-1.421.351.12.674.168.905-.011-.154-.345-.812-.55-1.193-1.357.37.036.764.08.842 0-.172-.697-.466-1.09-.755-1.497.792-.01 1.991.004 1.937-.063l-.49-.499c.774-.207 1.567.034 2.14.213.258-.203-.004-.459-.318-.72a7.793 7.793 0 011.787.444c.287-.258-.186-.516-.414-.773 1.015.191 1.445.46 1.872.73.311-.295.018-.548-.19-.807.766.283 1.16.648 1.575 1.01.141-.19.358-.329.096-.785.544.312.953.68 1.256 1.092.337-.214.201-.506.202-.775.565.46.924.946 1.363 1.424.088-.064.165-.283.233-.627 1.349 1.304 3.253 4.587.49 5.89-2.352-1.936-5.16-3.341-8.272-4.394zm21.228 0c-4 2.055-6.326 3.718-7.6 5.134.653 2.607 4.057 2.726 5.302 2.653-.255-.12-.468-.26-.544-.48.313-.22 1.42-.022 2.193-.455-.297-.062-.435-.12-.575-.34.732-.231 1.52-.432 1.98-.816-.25.003-.482.055-.808-.17.654-.351 1.353-.63 1.895-1.166-.339-.01-.703-.004-.81-.13.6-.37 1.104-.78 1.524-1.23-.475.059-.674.01-.788-.074.453-.461 1.025-.85 1.297-1.421-.35.12-.672.168-.903-.011.153-.345.814-.55 1.192-1.357-.37.036-.762.08-.84 0 .172-.697.466-1.09.756-1.497-.792-.012-1.992.004-1.938-.063l.49-.499c-.774-.207-1.566.034-2.14.213-.26-.203.004-.459.318-.72a7.742 7.742 0 00-1.788.444c-.287-.258.187-.516.416-.774-1.017.191-1.445.461-1.874.731-.31-.295-.018-.548.191-.807-.766.283-1.16.648-1.575 1.008-.14-.189-.357-.327-.096-.783-.543.311-.954.68-1.256 1.092-.336-.215-.2-.506-.202-.775-.565.46-.923.946-1.363 1.424-.088-.064-.165-.283-.233-.627-1.35 1.304-3.254 4.587-.49 5.89 2.35-1.937 5.157-3.341 8.27-4.394z"/><path fill="#ff4081" d="M28.889 33.44c.014 2.433-2.12 4.414-4.766 4.428-2.647.012-4.804-1.948-4.817-4.38v-.048c-.014-2.433 2.12-4.414 4.766-4.428 2.647-.012 4.803 1.948 4.817 4.382v.046zm-7.565-12.58c1.985 1.296 2.343 4.234.8 6.563-1.545 2.33-4.406 3.165-6.392 1.868-1.985-1.297-2.343-4.235-.8-6.563 1.545-2.33 4.407-3.165 6.392-1.868zm5.36-.236c-1.986 1.295-2.344 4.235-.8 6.563 1.544 2.33 4.406 3.166 6.39 1.87 1.986-1.298 2.345-4.235.8-6.565-1.543-2.328-4.405-3.164-6.39-1.868zM11.402 22.98c2.143-.573.723 8.838-1.02 8.066-1.919-1.539-2.537-6.044 1.02-8.066zm24.774-.118c-2.145-.572-.724 8.84 1.02 8.066 1.919-1.539 2.537-6.043-1.02-8.066zm-7.284-7.01c3.7-.623 6.779 1.568 6.654 5.566-.122 1.534-8.018-5.34-6.654-5.565zm-10.222-.118c-3.7-.621-6.778 1.57-6.653 5.567.121 1.534 8.016-5.338 6.653-5.567zm5.314-.931c-2.208-.058-4.328 1.634-4.333 2.613-.006 1.19 1.747 2.412 4.348 2.442 2.657.019 4.351-.977 4.361-2.205.01-1.393-2.416-2.872-4.376-2.85zm.135 24.432c1.926-.084 4.508.62 4.514 1.55.031.904-2.344 2.947-4.641 2.907-2.381.103-4.715-1.944-4.684-2.652-.036-1.042 2.899-1.852 4.811-1.805zm-7.11-5.518c1.37 1.646 1.994 4.54.851 5.39-1.082.652-3.71.384-5.578-2.29-1.26-2.245-1.098-4.527-.213-5.199 1.322-.803 3.366.28 4.94 2.1zm13.947-.52c-1.484 1.731-2.309 4.888-1.227 5.905 1.033.791 3.811.681 5.861-2.156 1.49-1.906.992-5.087.142-5.934-1.265-.972-3.08.273-4.776 2.185z"/></svg>