<svg xmlns="http://www.w3.org/2000/svg" viewBox="0 0 19.2 19.2" width="48" height="48"><path fill="#dcd5f2" d="M9.6 14.098c-4.471 0-8.25-2.06-8.25-4.498S5.129 5.102 9.6 5.102c4.472 0 8.25 2.06 8.25 4.498s-3.779 4.498-8.25 4.498z"/><path fill="#8b75a1" d="M9.6 5.664c4.538 0 7.7 2.075 7.7 3.936 0 1.861-3.162 3.936-7.7 3.936-4.537 0-7.7-2.075-7.7-3.936 0-1.861 3.163-3.936 7.7-3.936m0-1.124C4.74 4.54.8 6.806.8 9.6c0 2.794 3.94 5.06 8.8 5.06 4.86 0 8.8-2.266 8.8-5.06 0-2.794-3.94-5.06-8.8-5.06z"/><path fill="#36404d" d="M5.778 9.038c.256 0 .438.085.5.165.011.015.04.053.01.186-.097.415-.18.773-1.386.773h-.105l.207-1.124h.774m0-1.125H4.09l-.825 4.498h1.076l.207-1.124h.353c1.381 0 2.176-.429 2.456-1.639.242-1.039-.56-1.735-1.58-1.735zm8.8 1.125c.256 0 .438.085.5.165.011.015.04.053.01.186-.097.415-.18.773-1.386.773h-.104l.207-1.124h.772m0-1.125H12.89l-.825 4.498h1.076l.207-1.124h.353c1.381 0 2.176-.429 2.456-1.639.243-1.039-.56-1.735-1.58-1.735zM11.458 8.185c-.208-.193-.573-.272-1.118-.272h-.692l.284-1.124H8.825l-.92 4.498h1.12l.43-2.25h.885c.076 0 .141.003.195.005l-.42 2.245h1.144l.383-2.166c.081-.43.02-.744-.184-.936z"/></svg>