<svg xmlns="http://www.w3.org/2000/svg" width="48" height="48"><g fill="#30dc80"><path d="M24 15.838c-12.573 0-22.892 9.518-24 21.662h48c-1.108-12.144-11.427-21.662-24-21.662zm9.179 12.843a1.999 1.976 0 113.998 0 1.999 1.976 0 01-3.998 0zm-20.357 1.976a1.999 1.976 0 110-3.952 1.999 1.976 0 010 3.952z"/><path d="M34.038 21.004a.822.813 0 01-.711-1.218l5.197-8.905a.822.813 0 011.423.811l-5.197 8.905a.82.81 0 01-.712.407zm-20.076 0a.822.813 0 01-.712-.407l-5.196-8.905a.822.813 0 011.422-.811l5.197 8.905a.82.81 0 01-.711 1.218z"/></g></svg>