<?xml version="1.0" encoding="UTF-8" standalone="no"?>
<svg
   xmlns:dc="http://purl.org/dc/elements/1.1/"
   xmlns:cc="http://creativecommons.org/ns#"
   xmlns:rdf="http://www.w3.org/1999/02/22-rdf-syntax-ns#"
   xmlns:svg="http://www.w3.org/2000/svg"
   xmlns="http://www.w3.org/2000/svg"
   xmlns:sodipodi="http://sodipodi.sourceforge.net/DTD/sodipodi-0.dtd"
   xmlns:inkscape="http://www.inkscape.org/namespaces/inkscape"
   version="1.1"
   id="Ebene_1"
   x="0px"
   y="0px"
   width="40"
   height="40.000004"
   viewBox="0 0 47.999999 48.000004"
   enable-background="new 0 0 573.885 560"
   xml:space="preserve"
   sodipodi:docname="wamp.svg"
   inkscape:version="1.0.2-2 (e86c870879, 2021-01-15)"><metadata
   id="metadata17"><rdf:RDF><cc:Work
       rdf:about=""><dc:format>image/svg+xml</dc:format><dc:type
         rdf:resource="http://purl.org/dc/dcmitype/StillImage" /></cc:Work></rdf:RDF></metadata><defs
   id="defs15" /><sodipodi:namedview
   pagecolor="#ffffff"
   bordercolor="#666666"
   borderopacity="1"
   objecttolerance="10"
   gridtolerance="10"
   guidetolerance="10"
   inkscape:pageopacity="0"
   inkscape:pageshadow="2"
   inkscape:window-width="1366"
   inkscape:window-height="705"
   id="namedview13"
   showgrid="false"
   inkscape:zoom="4.7899169"
   inkscape:cx="16.819916"
   inkscape:cy="11.886801"
   inkscape:window-x="1912"
   inkscape:window-y="304"
   inkscape:window-maximized="1"
   inkscape:current-layer="Ebene_1"
   inkscape:document-rotation="0" />
<rect
   x="-317.43951"
   y="-261.15997"
   fill-rule="evenodd"
   clip-rule="evenodd"
   fill="none"
   width="723"
   height="604"
   id="rect2" />
<g
   id="g10"
   transform="matrix(0.07359584,0,0,0.07401639,3.503712,3.2719943)">
	<path
   fill-rule="evenodd"
   clip-rule="evenodd"
   fill="#4d4d4d"
   d="m 557.173,346.066 c -0.431,4.38 -0.956,8.751 -1.276,13.14 -3.843,52.729 -21.876,99.014 -62.109,134.875 -32.299,28.789 -70.035,46.606 -112.771,53.439 -9.633,1.54 -19.486,2.314 -29.242,2.353 -46.981,0.18 -94.006,1.207 -140.938,-0.356 C 138.553,547.109 82.057,515.9 44.7,452.729 29.2,426.518 19.079,398.352 16.576,367.97 c -1.827,-22.17 -1.987,-44.478 -2.91,-67.21 26.281,0 51.471,0 77.326,0 0,1.974 -0.033,3.915 0.005,5.854 0.322,16.465 -0.424,33.037 1.186,49.377 5.611,56.987 37.388,100.36 98.57,114.074 12.667,2.839 25.974,3.699 39.005,3.866 38.314,0.491 76.642,0.418 114.959,0.08 21.732,-0.191 42.959,-3.895 62.838,-13.16 37.655,-17.552 59.844,-47.496 68.849,-87.537 4.778,-21.248 3.766,-42.948 3.834,-64.533 0.009,-2.618 0.002,-5.235 0.002,-8.709 26.072,0 51.503,0 76.934,0 -10e-4,15.331 -10e-4,30.663 -10e-4,45.994 z"
   id="path4" />
	<path
   fill-rule="evenodd"
   clip-rule="evenodd"
   fill="#4d4d4d"
   d="m 363.254,127.638 c 6.567,1.91 12.389,3.124 17.845,5.266 31.831,12.498 49.639,36.725 56.645,69.405 1.653,7.713 2.018,15.815 2.061,23.744 0.203,37.823 0.537,75.654 -0.045,113.47 -0.5,32.474 -13.656,59.232 -39.876,78.842 -13.068,9.774 -28.257,14.252 -44.486,15.728 -17.597,1.6 -34.846,0.722 -51.313,-6.172 -5.479,-2.294 -10.458,-5.755 -15.805,-8.401 -1.51,-0.747 -4.09,-1.346 -5.198,-0.584 -13.357,9.18 -28.157,13.676 -44.199,15.17 -19.721,1.839 -38.913,0.14 -56.878,-8.442 -27.941,-13.347 -42.797,-36.933 -49.368,-66.268 -1.579,-7.05 -1.993,-14.479 -2.028,-21.737 -0.19,-38.656 0.039,-77.314 -0.122,-115.971 -0.202,-48.65 30.631,-82.121 72.525,-92.802 1.079,-0.275 2.222,-0.298 3.964,-0.519 0,2.501 0,4.625 0,6.748 0,66.984 -0.021,133.967 0.061,200.951 0.004,3.604 0.398,7.356 1.455,10.778 2.731,8.844 12.617,13.384 23.367,11.158 10.78,-2.232 15.531,-8.305 15.569,-20.343 0.072,-23.161 0.022,-46.322 0.023,-69.483 0,-1.99 0,-3.98 0,-6.387 25.471,0 50.667,0 76.458,0 0,1.845 0,3.625 0,5.404 0,23.827 -0.065,47.655 0.045,71.481 0.029,6.317 -0.02,13.136 6.627,16.619 8.108,4.248 16.7,4.627 24.817,0.065 6.36,-3.575 7.734,-10.104 7.811,-16.795 0.142,-12.495 0.044,-24.994 0.044,-37.49 0.001,-55.32 0.001,-110.64 0.001,-165.96 0,-2.118 0,-4.236 0,-7.475 z"
   id="path6" />
	<path
   fill-rule="evenodd"
   clip-rule="evenodd"
   fill="#4d4d4d"
   d="m 557.173,261.077 c -22.988,-0.08 -45.976,-0.161 -68.964,-0.238 -2.322,-0.008 -4.645,-10e-4 -7.588,-10e-4 -0.137,-2.148 -0.334,-4.061 -0.37,-5.976 -0.301,-16.135 0.331,-32.345 -1.015,-48.391 C 474.447,149.337 439.03,104.383 381.505,91.006 368.532,87.99 354.96,86.472 341.633,86.261 302.82,85.646 263.987,85.781 225.168,86.143 c -22.733,0.212 -44.893,3.918 -65.499,14.35 -35.315,17.878 -56.632,46.624 -64.485,85.031 -2.771,13.553 -3.269,27.629 -4.066,41.51 -0.629,10.949 -0.126,21.963 -0.126,33.375 -25.486,0 -50.678,0 -76.458,0 0,-3.035 -0.046,-5.987 0.008,-8.937 0.326,-17.967 -0.318,-36.02 1.231,-53.882 2.862,-33.009 13.189,-63.853 30.224,-92.393 29.264,-49.029 71.851,-79.375 127.823,-90.337 14.088,-2.759 28.62,-4.328 42.969,-4.481 46.813,-0.5 93.647,-0.696 140.452,0.153 38.131,0.692 73.397,12.289 105.758,32.478 35.586,22.201 62.767,51.655 78.222,91.162 7.412,18.949 12.041,38.543 13.722,58.818 0.508,6.123 0.75,12.267 1.219,18.393 0.097,1.252 0.663,2.468 1.013,3.7 -0.002,15.332 -0.002,30.663 -0.002,45.994 z"
   id="path8" />
</g>
</svg>
